<mxfile host="65bd71144e">
    <diagram id="ETWsS70P1tHz5V-jA7J0" name="Page-1">
        <mxGraphModel dx="693" dy="585" grid="1" gridSize="10" guides="1" tooltips="1" connect="1" arrows="1" fold="1" page="1" pageScale="1" pageWidth="827" pageHeight="1169" math="0" shadow="0">
            <root>
                <mxCell id="0"/>
                <mxCell id="1" parent="0"/>
                <mxCell id="4" value="EVENT N&lt;br&gt;objectType : T&lt;br&gt;objectId : NX" style="rounded=0;whiteSpace=wrap;html=1;fillColor=#33FF33;fontColor=#000000;" parent="1" vertex="1">
                    <mxGeometry y="180" width="100" height="60" as="geometry"/>
                </mxCell>
                <mxCell id="5" value="EVENT 1&lt;br&gt;objectType : T&lt;br&gt;objectId : N1" style="rounded=0;whiteSpace=wrap;html=1;fillColor=#33FF33;fontColor=#000000;" parent="1" vertex="1">
                    <mxGeometry x="120" y="180" width="90" height="60" as="geometry"/>
                </mxCell>
                <mxCell id="6" value="" style="endArrow=none;dashed=1;html=1;fontColor=#000000;exitX=1;exitY=0.5;exitDx=0;exitDy=0;entryX=0;entryY=0.5;entryDx=0;entryDy=0;strokeColor=#000000;" parent="1" source="4" target="5" edge="1">
                    <mxGeometry width="50" height="50" relative="1" as="geometry">
                        <mxPoint x="320" y="300" as="sourcePoint"/>
                        <mxPoint x="370" y="250" as="targetPoint"/>
                    </mxGeometry>
                </mxCell>
                <mxCell id="7" value="JSP" style="rounded=0;whiteSpace=wrap;html=1;fillColor=#33FF33;fontColor=#000000;" parent="1" vertex="1">
                    <mxGeometry x="250" y="200" width="70" height="60" as="geometry"/>
                </mxCell>
                <mxCell id="8" value="" style="endArrow=classic;html=1;fontColor=#000000;exitX=1;exitY=0.5;exitDx=0;exitDy=0;entryX=0;entryY=0.5;entryDx=0;entryDy=0;strokeColor=#000000;" parent="1" source="5" target="7" edge="1">
                    <mxGeometry width="50" height="50" relative="1" as="geometry">
                        <mxPoint x="320" y="310" as="sourcePoint"/>
                        <mxPoint x="370" y="260" as="targetPoint"/>
                    </mxGeometry>
                </mxCell>
                <mxCell id="9" value="PDF (pdfForm)" style="rounded=0;whiteSpace=wrap;html=1;fillColor=#33FF33;fontColor=#000000;" parent="1" vertex="1">
                    <mxGeometry x="400" y="160" width="70" height="60" as="geometry"/>
                </mxCell>
                <mxCell id="10" value="ODT (odtForm)" style="rounded=0;whiteSpace=wrap;html=1;fillColor=#33FF33;fontColor=#000000;" parent="1" vertex="1">
                    <mxGeometry x="400" y="240" width="70" height="60" as="geometry"/>
                </mxCell>
                <mxCell id="11" value="JSP (jspHtml)" style="rounded=0;whiteSpace=wrap;html=1;fillColor=#33FF33;fontColor=#000000;" parent="1" vertex="1">
                    <mxGeometry x="400" y="80" width="70" height="60" as="geometry"/>
                </mxCell>
                <mxCell id="12" value="PDF" style="rounded=0;whiteSpace=wrap;html=1;fillColor=#33FF33;fontColor=#000000;" parent="1" vertex="1">
                    <mxGeometry x="520" y="160" width="70" height="60" as="geometry"/>
                </mxCell>
                <mxCell id="13" value="ODT" style="rounded=0;whiteSpace=wrap;html=1;fillColor=#33FF33;fontColor=#000000;" parent="1" vertex="1">
                    <mxGeometry x="520" y="240" width="70" height="60" as="geometry"/>
                </mxCell>
                <mxCell id="14" value="HTML" style="rounded=0;whiteSpace=wrap;html=1;fillColor=#33FF33;fontColor=#000000;" parent="1" vertex="1">
                    <mxGeometry x="520" y="80" width="70" height="60" as="geometry"/>
                </mxCell>
                <mxCell id="15" value="" style="endArrow=classic;html=1;fontColor=#000000;entryX=0;entryY=0.5;entryDx=0;entryDy=0;strokeColor=#000000;exitX=1;exitY=0.5;exitDx=0;exitDy=0;dashed=1;" edge="1" parent="1" source="5" target="11">
                    <mxGeometry width="50" height="50" relative="1" as="geometry">
                        <mxPoint x="220" y="110" as="sourcePoint"/>
                        <mxPoint x="240" y="220" as="targetPoint"/>
                    </mxGeometry>
                </mxCell>
                <mxCell id="16" value="" style="endArrow=classic;html=1;fontColor=#000000;entryX=0;entryY=0.5;entryDx=0;entryDy=0;strokeColor=#000000;" edge="1" parent="1" target="9">
                    <mxGeometry width="50" height="50" relative="1" as="geometry">
                        <mxPoint x="320" y="230" as="sourcePoint"/>
                        <mxPoint x="260" y="240" as="targetPoint"/>
                    </mxGeometry>
                </mxCell>
                <mxCell id="18" value="" style="endArrow=classic;html=1;fontColor=#000000;entryX=0.006;entryY=0.643;entryDx=0;entryDy=0;strokeColor=#000000;entryPerimeter=0;exitX=1;exitY=0.5;exitDx=0;exitDy=0;" edge="1" parent="1" source="7" target="10">
                    <mxGeometry width="50" height="50" relative="1" as="geometry">
                        <mxPoint x="330" y="240" as="sourcePoint"/>
                        <mxPoint x="370" y="240" as="targetPoint"/>
                    </mxGeometry>
                </mxCell>
                <mxCell id="19" value="" style="endArrow=classic;html=1;fontColor=#000000;entryX=0;entryY=0.5;entryDx=0;entryDy=0;strokeColor=#000000;exitX=1;exitY=0.5;exitDx=0;exitDy=0;dashed=1;" edge="1" parent="1" source="10" target="13">
                    <mxGeometry width="50" height="50" relative="1" as="geometry">
                        <mxPoint x="360" y="240" as="sourcePoint"/>
                        <mxPoint x="410.4200000000001" y="288.58000000000004" as="targetPoint"/>
                    </mxGeometry>
                </mxCell>
                <mxCell id="20" value="" style="endArrow=classic;html=1;fontColor=#000000;strokeColor=#000000;exitX=1;exitY=0.5;exitDx=0;exitDy=0;dashed=1;" edge="1" parent="1" source="9">
                    <mxGeometry width="50" height="50" relative="1" as="geometry">
                        <mxPoint x="480" y="280" as="sourcePoint"/>
                        <mxPoint x="520" y="190" as="targetPoint"/>
                    </mxGeometry>
                </mxCell>
                <mxCell id="21" value="" style="endArrow=classic;html=1;fontColor=#000000;strokeColor=#000000;exitX=1;exitY=0.5;exitDx=0;exitDy=0;entryX=0;entryY=0.5;entryDx=0;entryDy=0;" edge="1" parent="1" source="11" target="14">
                    <mxGeometry width="50" height="50" relative="1" as="geometry">
                        <mxPoint x="480" y="200" as="sourcePoint"/>
                        <mxPoint x="530" y="200" as="targetPoint"/>
                    </mxGeometry>
                </mxCell>
                <mxCell id="22" value="" style="endArrow=none;html=1;dashed=1;strokeColor=#000000;" edge="1" parent="1">
                    <mxGeometry width="50" height="50" relative="1" as="geometry">
                        <mxPoint x="360" y="420" as="sourcePoint"/>
                        <mxPoint x="360" y="55" as="targetPoint"/>
                    </mxGeometry>
                </mxCell>
                <mxCell id="23" value="Debug output" style="edgeLabel;html=1;align=center;verticalAlign=middle;resizable=0;points=[];rotation=90;fontSize=15;" vertex="1" connectable="0" parent="22">
                    <mxGeometry x="-0.5484" y="4" relative="1" as="geometry">
                        <mxPoint x="24" y="12" as="offset"/>
                    </mxGeometry>
                </mxCell>
            </root>
        </mxGraphModel>
    </diagram>
</mxfile>